<svg xmlns="http://www.w3.org/2000/svg" viewBox="0 0 1000 900" width="1000" height="900" role="img" aria-label="Curtain interior illustration">
  
  <defs>
    <linearGradient id="brass" x1="0" y1="0" x2="0" y2="1">
      <stop offset="0" stop-color="#e4c477"/>
      <stop offset="0.45" stop-color="#c99a3d"/>
      <stop offset="1" stop-color="#8a6520"/>
    </linearGradient>
    <linearGradient id="panelShade" x1="0" y1="0" x2="0" y2="1">
      <stop offset="0" stop-color="#000000" stop-opacity="0.26"/>
      <stop offset="0.35" stop-color="#000000" stop-opacity="0.03"/>
      <stop offset="0.82" stop-color="#000000" stop-opacity="0.12"/>
      <stop offset="1" stop-color="#000000" stop-opacity="0.34"/>
    </linearGradient>
    <linearGradient id="daylight" x1="0.2" y1="0" x2="0.8" y2="1">
      <stop offset="0" stop-color="#f6efe1"/>
      <stop offset="0.5" stop-color="#e8dcc6"/>
      <stop offset="1" stop-color="#cbbda2"/>
    </linearGradient>
    <radialGradient id="glow" cx="0.5" cy="0.32" r="0.72">
      <stop offset="0" stop-color="#ffffff" stop-opacity="0.3"/>
      <stop offset="1" stop-color="#ffffff" stop-opacity="0"/>
    </radialGradient>
    <radialGradient id="vignette" cx="0.5" cy="0.42" r="0.76">
      <stop offset="0.4" stop-color="#000000" stop-opacity="0"/>
      <stop offset="1" stop-color="#000000" stop-opacity="0.55"/>
    </radialGradient>
  </defs>
  <rect width="1000" height="900" fill="#f2ece0"/>
  <rect x="200" y="100" width="600" height="710" fill="url(#daylight)"/>
  <rect x="200" y="100" width="600" height="710" fill="url(#glow)"/>
  <line x1="500" y1="100" x2="500" y2="810" stroke="#f2ead9" stroke-opacity="0.35" stroke-width="3"/>
  <g opacity="0.55"><path d="M206.0 96 H240.6 V805.5 Q223.3 809.1 206.0 805.5 Z" fill="#e7decd"/><line x1="240.6" y1="96" x2="240.6" y2="805.5" stroke="#bdb29e" stroke-width="0.8" opacity="0.5"/><path d="M239.9 96 H270.3 V806.0 Q255.1 810.8 239.9 806.0 Z" fill="#f3ecdf"/><line x1="270.3" y1="96" x2="270.3" y2="806.0" stroke="#c2b8a6" stroke-width="0.8" opacity="0.5"/><path d="M269.6 96 H300.0 V806.0 Q284.8 810.8 269.6 806.0 Z" fill="#f1eadd"/><line x1="300.0" y1="96" x2="300.0" y2="806.0" stroke="#c1b7a5" stroke-width="0.8" opacity="0.5"/><path d="M299.3 96 H316.6 V806.8 Q307.9 813.4 299.3 806.8 Z" fill="#e1d7c4"/><line x1="316.6" y1="96" x2="316.6" y2="806.8" stroke="#baaf9a" stroke-width="0.8" opacity="0.5"/><path d="M315.9 96 H331.8 V805.9 Q323.8 810.2 315.9 805.9 Z" fill="#a29681"/><line x1="331.8" y1="96" x2="331.8" y2="805.9" stroke="#9e927c" stroke-width="0.8" opacity="0.5"/><path d="M331.1 96 H351.1 V807.7 Q341.1 816.4 331.1 807.7 Z" fill="#a59a84"/><line x1="351.1" y1="96" x2="351.1" y2="807.7" stroke="#9f937d" stroke-width="0.8" opacity="0.5"/><path d="M350.4 96 H385.6 V807.4 Q368.0 815.4 350.4 807.4 Z" fill="#d4c9b5"/><line x1="385.6" y1="96" x2="385.6" y2="807.4" stroke="#b4a993" stroke-width="0.8" opacity="0.5"/><path d="M384.9 96 H400.7 V807.0 Q392.8 813.9 384.9 807.0 Z" fill="#f2ebdd"/><line x1="400.7" y1="96" x2="400.7" y2="807.0" stroke="#c2b8a5" stroke-width="0.8" opacity="0.5"/><path d="M400.0 96 H433.5 V807.3 Q416.8 815.0 400.0 807.3 Z" fill="#f3ecdf"/><line x1="433.5" y1="96" x2="433.5" y2="807.3" stroke="#c2b8a6" stroke-width="0.8" opacity="0.5"/><path d="M432.8 96 H449.1 V808.4 Q440.9 818.6 432.8 808.4 Z" fill="#dfd4c0"/><line x1="449.1" y1="96" x2="449.1" y2="808.4" stroke="#b9ae98" stroke-width="0.8" opacity="0.5"/><path d="M448.4 96 H466.6 V808.2 Q457.5 817.9 448.4 808.2 Z" fill="#b9ae99"/><line x1="466.6" y1="96" x2="466.6" y2="808.2" stroke="#a89c87" stroke-width="0.8" opacity="0.5"/><path d="M465.9 96 H488.3 V808.4 Q477.1 818.5 465.9 808.4 Z" fill="#a1957f"/><line x1="488.3" y1="96" x2="488.3" y2="808.4" stroke="#9d917b" stroke-width="0.8" opacity="0.5"/><path d="M487.6 96 H516.2 V807.2 Q501.9 814.8 487.6 807.2 Z" fill="#c8bda8"/><line x1="516.2" y1="96" x2="516.2" y2="807.2" stroke="#afa38e" stroke-width="0.8" opacity="0.5"/><path d="M515.5 96 H555.7 V808.4 Q535.6 818.8 515.5 808.4 Z" fill="#f0e9db"/><line x1="555.7" y1="96" x2="555.7" y2="808.4" stroke="#c1b7a5" stroke-width="0.8" opacity="0.5"/><path d="M555.0 96 H589.4 V808.3 Q572.2 818.2 555.0 808.3 Z" fill="#f4ede1"/><line x1="589.4" y1="96" x2="589.4" y2="808.3" stroke="#c3b9a7" stroke-width="0.8" opacity="0.5"/><path d="M588.7 96 H605.4 V807.7 Q597.1 816.5 588.7 807.7 Z" fill="#e7ddcc"/><line x1="605.4" y1="96" x2="605.4" y2="807.7" stroke="#bdb29e" stroke-width="0.8" opacity="0.5"/><path d="M604.7 96 H631.2 V806.4 Q617.9 812.1 604.7 806.4 Z" fill="#baaf9a"/><line x1="631.2" y1="96" x2="631.2" y2="806.4" stroke="#a89d87" stroke-width="0.8" opacity="0.5"/><path d="M630.5 96 H667.1 V806.7 Q648.8 813.2 630.5 806.7 Z" fill="#a39781"/><line x1="667.1" y1="96" x2="667.1" y2="806.7" stroke="#9e927c" stroke-width="0.8" opacity="0.5"/><path d="M666.4 96 H696.5 V805.9 Q681.5 810.2 666.4 805.9 Z" fill="#bcb19c"/><line x1="696.5" y1="96" x2="696.5" y2="805.9" stroke="#a99e88" stroke-width="0.8" opacity="0.5"/><path d="M695.8 96 H734.8 V805.5 Q715.3 809.0 695.8 805.5 Z" fill="#e8dfcf"/><line x1="734.8" y1="96" x2="734.8" y2="805.5" stroke="#bdb29f" stroke-width="0.8" opacity="0.5"/><path d="M734.1 96 H764.3 V806.2 Q749.2 811.4 734.1 806.2 Z" fill="#f5efe2"/><line x1="764.3" y1="96" x2="764.3" y2="806.2" stroke="#c3baa8" stroke-width="0.8" opacity="0.5"/><path d="M763.6 96 H794.7 V804.5 Q779.2 805.7 763.6 804.5 Z" fill="#eee7d8"/><line x1="794.7" y1="96" x2="794.7" y2="804.5" stroke="#c0b6a3" stroke-width="0.8" opacity="0.5"/><rect x="206" y="96" width="588" height="748" fill="url(#panelShade)"/></g>
  <g opacity="1"><path d="M-40.0 90 H-20.1 V810.9 Q-30.0 813.2 -40.0 810.9 Z" fill="#dfd4c0"/><line x1="-20.1" y1="90" x2="-20.1" y2="810.9" stroke="#b9ae98" stroke-width="0.8" opacity="0.5"/><path d="M-20.8 90 H-1.7 V811.5 Q-11.2 815.0 -20.8 811.5 Z" fill="#f2ebdd"/><line x1="-1.7" y1="90" x2="-1.7" y2="811.5" stroke="#c2b8a5" stroke-width="0.8" opacity="0.5"/><path d="M-2.4 90 H27.3 V814.4 Q12.5 824.6 -2.4 814.4 Z" fill="#b9ae98"/><line x1="27.3" y1="90" x2="27.3" y2="814.4" stroke="#a89c86" stroke-width="0.8" opacity="0.5"/><path d="M26.6 90 H58.5 V815.0 Q42.6 826.5 26.6 815.0 Z" fill="#c9beaa"/><line x1="58.5" y1="90" x2="58.5" y2="815.0" stroke="#afa48f" stroke-width="0.8" opacity="0.5"/><path d="M57.8 90 H75.3 V814.9 Q66.5 826.3 57.8 814.9 Z" fill="#f5eee2"/><line x1="75.3" y1="90" x2="75.3" y2="814.9" stroke="#c3b9a8" stroke-width="0.8" opacity="0.5"/><path d="M74.6 90 H102.6 V816.3 Q88.6 831.1 74.6 816.3 Z" fill="#dacfbb"/><line x1="102.6" y1="90" x2="102.6" y2="816.3" stroke="#b7ab96" stroke-width="0.8" opacity="0.5"/><path d="M101.9 90 H118.8 V816.6 Q110.4 832.2 101.9 816.6 Z" fill="#a29680"/><line x1="118.8" y1="90" x2="118.8" y2="816.6" stroke="#9e927c" stroke-width="0.8" opacity="0.5"/><path d="M118.1 90 H148.0 V817.0 Q133.1 833.2 118.1 817.0 Z" fill="#e6dccb"/><line x1="148.0" y1="90" x2="148.0" y2="817.0" stroke="#bcb19d" stroke-width="0.8" opacity="0.5"/><path d="M147.3 90 H161.3 V815.7 Q154.3 829.0 147.3 815.7 Z" fill="#f1eadc"/><line x1="161.3" y1="90" x2="161.3" y2="815.7" stroke="#c1b7a5" stroke-width="0.8" opacity="0.5"/><path d="M160.6 90 H193.6 V815.0 Q177.1 826.8 160.6 815.0 Z" fill="#a89c87"/><line x1="193.6" y1="90" x2="193.6" y2="815.0" stroke="#a0947f" stroke-width="0.8" opacity="0.5"/><path d="M192.9 90 H218.0 V813.3 Q205.5 821.0 192.9 813.3 Z" fill="#d9ceb9"/><line x1="218.0" y1="90" x2="218.0" y2="813.3" stroke="#b6ab95" stroke-width="0.8" opacity="0.5"/><path d="M217.3 90 H245.7 V812.8 Q231.5 819.3 217.3 812.8 Z" fill="#f5eee2"/><line x1="245.7" y1="90" x2="245.7" y2="812.8" stroke="#c3b9a8" stroke-width="0.8" opacity="0.5"/><rect x="-40" y="90" width="285" height="760" fill="url(#panelShade)"/></g>
  <g opacity="1"><path d="M755.0 90 H787.7 V810.4 Q771.3 811.2 755.0 810.4 Z" fill="#e8dfcf"/><line x1="787.7" y1="90" x2="787.7" y2="810.4" stroke="#bdb29f" stroke-width="0.8" opacity="0.5"/><path d="M787.0 90 H815.7 V812.7 Q801.3 819.0 787.0 812.7 Z" fill="#f2ebdd"/><line x1="815.7" y1="90" x2="815.7" y2="812.7" stroke="#c2b8a5" stroke-width="0.8" opacity="0.5"/><path d="M815.0 90 H829.0 V813.6 Q822.0 822.0 815.0 813.6 Z" fill="#b1a590"/><line x1="829.0" y1="90" x2="829.0" y2="813.6" stroke="#a49883" stroke-width="0.8" opacity="0.5"/><path d="M828.3 90 H843.0 V814.7 Q835.7 825.6 828.3 814.7 Z" fill="#c6bba6"/><line x1="843.0" y1="90" x2="843.0" y2="814.7" stroke="#aea28d" stroke-width="0.8" opacity="0.5"/><path d="M842.3 90 H874.9 V816.3 Q858.6 831.1 842.3 816.3 Z" fill="#f2ecdf"/><line x1="874.9" y1="90" x2="874.9" y2="816.3" stroke="#c2b8a6" stroke-width="0.8" opacity="0.5"/><path d="M874.2 90 H900.3 V816.4 Q887.3 831.3 874.2 816.4 Z" fill="#d4c8b4"/><line x1="900.3" y1="90" x2="900.3" y2="816.4" stroke="#b4a893" stroke-width="0.8" opacity="0.5"/><path d="M899.6 90 H923.0 V815.5 Q911.3 828.4 899.6 815.5 Z" fill="#a1957f"/><line x1="923.0" y1="90" x2="923.0" y2="815.5" stroke="#9d917b" stroke-width="0.8" opacity="0.5"/><path d="M922.3 90 H951.5 V816.4 Q936.9 831.2 922.3 816.4 Z" fill="#ede6d7"/><line x1="951.5" y1="90" x2="951.5" y2="816.4" stroke="#bfb6a3" stroke-width="0.8" opacity="0.5"/><path d="M950.8 90 H969.5 V816.2 Q960.1 830.7 950.8 816.2 Z" fill="#f1eadd"/><line x1="969.5" y1="90" x2="969.5" y2="816.2" stroke="#c1b7a5" stroke-width="0.8" opacity="0.5"/><path d="M968.8 90 H1000.8 V813.9 Q984.8 822.8 968.8 813.9 Z" fill="#aca08b"/><line x1="1000.8" y1="90" x2="1000.8" y2="813.9" stroke="#a29681" stroke-width="0.8" opacity="0.5"/><path d="M1000.1 90 H1023.8 V813.7 Q1012.0 822.2 1000.1 813.7 Z" fill="#c1b5a1"/><line x1="1023.8" y1="90" x2="1023.8" y2="813.7" stroke="#aca08a" stroke-width="0.8" opacity="0.5"/><path d="M1023.1 90 H1040.7 V812.0 Q1031.9 816.5 1023.1 812.0 Z" fill="#f5eee2"/><line x1="1040.7" y1="90" x2="1040.7" y2="812.0" stroke="#c3b9a8" stroke-width="0.8" opacity="0.5"/><rect x="755" y="90" width="285" height="760" fill="url(#panelShade)"/></g>
  
    <rect x="-66" y="85" width="1132" height="7" rx="3.5" fill="url(#brass)"/>
    <circle cx="-70" cy="88.5" r="9" fill="url(#brass)"/>
    <circle cx="1070" cy="88.5" r="9" fill="url(#brass)"/>
  <rect x="0" y="840" width="1000" height="60" fill="#a9a59d"/>
  <rect x="0" y="840" width="1000" height="5" fill="#f5f1e8"/>
  <rect width="1000" height="900" fill="url(#vignette)"/>
</svg>
